<svg width="921" height="741" viewBox="0 0 921 741" fill="none" xmlns="http://www.w3.org/2000/svg">
<g clip-path="url(#clip0_1_2)">
<path d="M908.612 634.654C906.981 634.212 905.486 633.373 904.261 632.21C903.035 631.048 902.117 629.6 901.59 627.995C901.322 627.171 900.083 627.695 900.35 628.514C900.941 630.284 901.956 631.882 903.308 633.169C904.659 634.457 906.305 635.393 908.102 635.898C908.267 635.959 908.45 635.956 908.613 635.888C908.776 635.82 908.906 635.692 908.979 635.531C909.045 635.366 909.044 635.181 908.976 635.017C908.907 634.853 908.776 634.723 908.612 634.654V634.654Z" fill="white"/>
<path d="M830.596 740.381H829.015C828.515 739.571 827.975 738.781 827.435 738.001C826.575 736.792 825.689 735.608 824.775 734.451C823.985 733.451 823.195 732.461 822.405 731.471C821.586 730.441 820.775 729.411 819.985 728.351L820.915 727.331C821.065 727.531 821.215 727.731 821.376 727.931C823.935 731.301 826.705 734.542 829.076 738.001C829.606 738.781 830.116 739.571 830.596 740.381Z" fill="white"/>
<path d="M824.082 614.555C822.514 615.184 820.815 615.414 819.137 615.224C817.458 615.034 815.853 614.43 814.466 613.466C813.756 612.97 813.083 614.134 813.788 614.627C815.326 615.684 817.099 616.349 818.953 616.563C820.807 616.778 822.685 616.534 824.424 615.855C824.593 615.805 824.737 615.692 824.826 615.54C824.915 615.387 824.942 615.207 824.903 615.035C824.857 614.863 824.745 614.716 824.591 614.626C824.437 614.536 824.254 614.511 824.082 614.555V614.555Z" fill="white"/>
<path d="M633.317 156.974H0.993225C0.727801 156.968 0.475206 156.859 0.289551 156.669C0.103895 156.479 -6.10352e-05 156.224 -6.10352e-05 155.959C-6.10352e-05 155.693 0.103895 155.438 0.289551 155.249C0.475206 155.059 0.727801 154.949 0.993225 154.943H633.317C633.582 154.949 633.835 155.059 634.02 155.249C634.206 155.438 634.31 155.693 634.31 155.959C634.31 156.224 634.206 156.479 634.02 156.669C633.835 156.859 633.582 156.968 633.317 156.974V156.974Z" fill="#CACACA"/>
<path d="M23.3483 142.759C29.3822 142.759 34.2737 137.759 34.2737 131.591C34.2737 125.422 29.3822 120.422 23.3483 120.422C17.3144 120.422 12.423 125.422 12.423 131.591C12.423 137.759 17.3144 142.759 23.3483 142.759Z" fill="#3F3D56"/>
<path d="M61.0904 142.759C67.1243 142.759 72.0157 137.759 72.0157 131.591C72.0157 125.422 67.1243 120.422 61.0904 120.422C55.0565 120.422 50.165 125.422 50.165 131.591C50.165 137.759 55.0565 142.759 61.0904 142.759Z" fill="#3F3D56"/>
<path d="M98.8324 142.759C104.866 142.759 109.758 137.759 109.758 131.591C109.758 125.422 104.866 120.422 98.8324 120.422C92.7985 120.422 87.9071 125.422 87.9071 131.591C87.9071 137.759 92.7985 142.759 98.8324 142.759Z" fill="#3F3D56"/>
<path d="M610.7 123.19H583.89C583.358 123.201 582.852 123.419 582.48 123.799C582.108 124.178 581.899 124.688 581.899 125.22C581.899 125.752 582.108 126.262 582.48 126.641C582.852 127.021 583.358 127.239 583.89 127.25H610.7C611.231 127.239 611.737 127.021 612.109 126.641C612.481 126.262 612.69 125.752 612.69 125.22C612.69 124.688 612.481 124.178 612.109 123.799C611.737 123.419 611.231 123.201 610.7 123.19V123.19Z" fill="#3F3D56"/>
<path d="M610.7 130.81H583.89C583.358 130.821 582.852 131.039 582.48 131.419C582.108 131.798 581.899 132.308 581.899 132.84C581.899 133.372 582.108 133.882 582.48 134.261C582.852 134.641 583.358 134.859 583.89 134.87H610.7C611.231 134.859 611.737 134.641 612.109 134.261C612.481 133.882 612.69 133.372 612.69 132.84C612.69 132.308 612.481 131.798 612.109 131.419C611.737 131.039 611.231 130.821 610.7 130.81Z" fill="#3F3D56"/>
<path d="M610.7 138.42H583.89C583.358 138.431 582.852 138.649 582.48 139.029C582.108 139.408 581.899 139.918 581.899 140.45C581.899 140.981 582.108 141.492 582.48 141.871C582.852 142.251 583.358 142.469 583.89 142.48H610.7C611.231 142.469 611.737 142.251 612.109 141.871C612.481 141.492 612.69 140.981 612.69 140.45C612.69 139.918 612.481 139.408 612.109 139.029C611.737 138.649 611.231 138.431 610.7 138.42V138.42Z" fill="#3F3D56"/>
<path d="M166.66 198.35H138.27C122.258 229.873 110.987 263.586 104.82 298.4H166.66C168.63 298.403 170.582 298.018 172.404 297.265C174.225 296.513 175.88 295.408 177.274 294.014C178.667 292.621 179.772 290.966 180.525 289.144C181.277 287.323 181.663 285.371 181.66 283.4V213.34C181.654 209.364 180.072 205.553 177.26 202.743C174.448 199.932 170.635 198.353 166.66 198.35Z" fill="#CCCCCC"/>
<path d="M376.97 198.35H248.34C244.364 198.353 240.552 199.932 237.739 202.743C234.927 205.553 233.345 209.364 233.34 213.34V283.4C233.344 287.377 234.926 291.189 237.738 294.001C240.55 296.813 244.363 298.395 248.34 298.4H376.97C380.946 298.395 384.759 296.813 387.571 294.001C390.383 291.189 391.965 287.377 391.97 283.4V213.34C391.964 209.364 390.382 205.553 387.57 202.743C384.758 199.932 380.945 198.353 376.97 198.35V198.35Z" fill="#CCCCCC"/>
<path d="M587.28 198.35H458.65C454.674 198.353 450.862 199.932 448.049 202.743C445.237 205.553 443.655 209.364 443.65 213.34V283.4C443.654 287.377 445.236 291.189 448.048 294.001C450.86 296.813 454.673 298.395 458.65 298.4H587.28C591.256 298.395 595.069 296.813 597.881 294.001C600.693 291.189 602.275 287.377 602.28 283.4V213.34C602.274 209.364 600.692 205.553 597.88 202.743C595.068 199.932 591.255 198.353 587.28 198.35V198.35Z" fill="#CCCCCC"/>
<path d="M166.66 345.35H99.6295C99.3795 350.87 99.2529 356.42 99.2495 362C99.2299 390.08 102.472 418.068 108.91 445.4H166.66C170.636 445.395 174.449 443.813 177.261 441.001C180.073 438.189 181.655 434.377 181.66 430.4V360.34C181.654 356.364 180.072 352.553 177.26 349.743C174.448 346.932 170.635 345.353 166.66 345.35V345.35Z" fill="#CCCCCC"/>
<path d="M376.97 345.35H248.34C244.364 345.353 240.552 346.932 237.739 349.743C234.927 352.553 233.345 356.364 233.34 360.34V430.4C233.344 434.377 234.926 438.189 237.738 441.001C240.55 443.813 244.363 445.395 248.34 445.4H376.97C380.946 445.395 384.759 443.813 387.571 441.001C390.383 438.189 391.965 434.377 391.97 430.4V360.34C391.964 356.364 390.382 352.553 387.57 349.743C384.758 346.932 380.945 345.353 376.97 345.35V345.35Z" fill="#CCCCCC"/>
<path d="M587.28 345.35H458.65C454.674 345.353 450.862 346.932 448.049 349.743C445.237 352.553 443.655 356.364 443.65 360.34V430.4C443.654 434.377 445.236 438.189 448.048 441.001C450.86 443.813 454.673 445.395 458.65 445.4H587.28C587.69 445.4 588.1 445.38 588.51 445.34C590.117 445.222 591.692 444.833 593.17 444.19C595.848 443.044 598.136 441.143 599.754 438.719C601.371 436.295 602.249 433.454 602.28 430.54V360.34C602.274 356.364 600.692 352.553 597.88 349.743C595.068 346.932 591.255 345.353 587.28 345.35V345.35Z" fill="#CCCCCC"/>
<path d="M169.344 315.132C185.78 315.132 199.103 301.809 199.103 285.373C199.103 268.938 185.78 255.614 169.344 255.614C152.909 255.614 139.585 268.938 139.585 285.373C139.585 301.809 152.909 315.132 169.344 315.132Z" fill="#6C63FF"/>
<path d="M165.284 300.861C164.771 300.861 164.264 300.742 163.804 300.512C163.345 300.282 162.945 299.948 162.636 299.537L154.518 288.712C154.257 288.364 154.067 287.968 153.959 287.547C153.851 287.126 153.828 286.688 153.889 286.258C153.951 285.827 154.096 285.413 154.318 285.039C154.539 284.665 154.832 284.338 155.18 284.078C155.528 283.817 155.923 283.627 156.345 283.519C156.766 283.411 157.204 283.387 157.634 283.449C158.065 283.51 158.479 283.656 158.853 283.878C159.227 284.099 159.553 284.392 159.814 284.74L165.126 291.821L178.768 271.358C179.009 270.996 179.319 270.685 179.68 270.443C180.041 270.2 180.447 270.031 180.873 269.946C181.3 269.86 181.739 269.86 182.166 269.944C182.593 270.028 182.999 270.196 183.361 270.437C183.723 270.679 184.033 270.989 184.275 271.35C184.517 271.712 184.686 272.118 184.771 272.544C184.856 272.971 184.856 273.41 184.771 273.837C184.686 274.263 184.518 274.669 184.277 275.031L168.039 299.387C167.745 299.828 167.35 300.191 166.887 300.448C166.424 300.704 165.906 300.846 165.377 300.86C165.346 300.861 165.315 300.861 165.284 300.861Z" fill="white"/>
<path d="M386.344 318.132C402.78 318.132 416.103 304.809 416.103 288.373C416.103 271.938 402.78 258.614 386.344 258.614C369.909 258.614 356.585 271.938 356.585 288.373C356.585 304.809 369.909 318.132 386.344 318.132Z" fill="#6C63FF"/>
<path d="M382.285 303.861C381.771 303.861 381.264 303.742 380.804 303.512C380.344 303.282 379.945 302.948 379.636 302.537L371.518 291.712C371.257 291.364 371.067 290.968 370.959 290.547C370.851 290.126 370.828 289.688 370.889 289.258C370.951 288.827 371.096 288.413 371.318 288.039C371.539 287.665 371.832 287.338 372.18 287.078C372.528 286.817 372.923 286.627 373.345 286.519C373.766 286.411 374.204 286.387 374.634 286.449C375.065 286.51 375.479 286.656 375.853 286.878C376.227 287.099 376.553 287.392 376.814 287.74L382.126 294.821L395.768 274.358C396.255 273.629 397.012 273.123 397.873 272.951C398.733 272.78 399.626 272.957 400.356 273.443C401.086 273.93 401.593 274.687 401.766 275.547C401.938 276.407 401.762 277.3 401.277 278.031L385.039 302.387C384.745 302.828 384.35 303.191 383.887 303.448C383.424 303.704 382.906 303.846 382.377 303.86C382.346 303.861 382.315 303.861 382.285 303.861Z" fill="white"/>
<path d="M811.31 448.735L801.995 358.571L799.537 321.463L825.609 316.749C825.609 316.749 829.513 342.259 832.929 357.229C836.299 372.002 828.439 446.756 828.23 448.727C830.145 450.439 831.495 452.692 832.101 455.188C832.708 457.685 832.542 460.306 831.626 462.706C830.71 465.105 829.087 467.171 826.972 468.628C824.857 470.086 822.35 470.867 819.781 470.868C817.212 470.869 814.704 470.09 812.587 468.635C810.471 467.18 808.846 465.116 807.928 462.717C807.01 460.318 806.842 457.697 807.446 455.2C808.05 452.704 809.397 450.449 811.31 448.735V448.735Z" fill="#A0616A"/>
<path d="M744.583 717.124L731.653 720.08L714.099 671.614L733.182 667.251L744.583 717.124Z" fill="#A0616A"/>
<path d="M746.92 712.15L743.62 712.9L743.28 712.98L728.19 710.52L727.75 710.45L721.45 717.97C717.146 718.955 713.409 721.609 711.061 725.348C708.713 729.087 707.946 733.606 708.93 737.91L708.95 738L709.06 738.44L710.98 738L750.75 728.9L746.92 712.15Z" fill="#2F2E41"/>
<path d="M821.665 725.578H808.401L802.092 674.418L821.667 674.419L821.665 725.578Z" fill="#A0616A"/>
<path d="M821.32 721.25L820.16 720.78L807.16 715.49L806.74 715.32L798.93 721.25C796.744 721.249 794.579 721.679 792.559 722.515C790.54 723.351 788.704 724.576 787.158 726.121C785.612 727.667 784.385 729.501 783.548 731.521C782.711 733.54 782.28 735.704 782.28 737.89V738.43L818.89 738.44H825.05V721.25H821.32Z" fill="#2F2E41"/>
<path d="M801.492 451.767L812.647 557.748C812.647 557.748 827.498 663.865 824.709 678.507C821.92 693.149 825.407 695.24 825.407 695.24L799.959 693.428C799.959 693.428 800.656 684.364 796.472 680.18C792.289 675.997 794.381 663.447 794.381 663.447L745.015 490.812L715.034 581.454C715.034 581.454 733.974 654.959 733.277 656.353C732.58 657.748 745.277 688.353 745.277 688.353L716.869 697.774C716.869 697.774 720.355 686.618 715.474 683.132C710.594 679.646 706.41 682.435 710.594 676.159C714.777 669.884 677.633 623.799 678.45 594.098C678.695 585.164 678.992 575.578 679.349 565.756C681.238 513.783 684.805 455.22 691.327 451.767C703.181 445.492 801.492 451.767 801.492 451.767Z" fill="#2F2E41"/>
<path d="M748.66 237.183C763.814 237.183 776.099 224.898 776.099 209.744C776.099 194.59 763.814 182.306 748.66 182.306C733.506 182.306 721.221 194.59 721.221 209.744C721.221 224.898 733.506 237.183 748.66 237.183Z" fill="#A0616A"/>
<path d="M840.277 377.353L803.018 386.811L803.277 376.353L800.449 373.353L794.799 343.756L788.8 267.129L809.389 278.049L809.414 278.068C813.009 282.023 816.016 286.476 818.342 291.288C826.103 307.067 833.559 341.821 837.462 362.007C837.596 362.431 837.855 362.804 838.205 363.077C840.141 364.855 841.404 367.246 841.782 369.846C842.159 372.447 841.628 375.099 840.277 377.353V377.353Z" fill="#3F3D56"/>
<path d="M620.1 411.262C620.1 411.262 671.528 357.043 672.007 356.021C675.6 328.741 685.932 316.707 687.481 318.013L714.149 327.252C714.149 327.252 706.217 352.371 700.846 367.291C695.714 381.548 636.568 416.371 635.581 418.09C636.641 420.43 636.965 423.037 636.511 425.565C636.057 428.093 634.847 430.424 633.04 432.249C631.232 434.074 628.913 435.308 626.39 435.787C623.866 436.265 621.257 435.966 618.906 434.93C616.556 433.893 614.576 432.167 613.228 429.981C611.88 427.794 611.228 425.25 611.357 422.685C611.486 420.12 612.392 417.654 613.953 415.614C615.514 413.574 617.658 412.057 620.1 411.262V411.262Z" fill="#A0616A"/>
<path d="M726.96 272.064C726.96 272.064 703.87 260.748 694.915 282.973C690.006 295.52 677.449 325.971 671.192 344.716C671.151 344.835 671.093 344.948 671.022 345.052C669.348 347.539 668.445 350.464 668.425 353.461C668.428 353.68 668.405 353.897 668.358 354.111C668.358 354.111 693.73 359.054 701.277 372.353L704.27 369.105L704.802 366.829L726.96 272.064Z" fill="#3F3D56"/>
<path d="M810.975 463.318C757.836 474.292 687.416 455.425 687.416 455.425L706.202 373.995L699.523 288.778C698.707 278.357 704.643 268.588 713.877 265.126L726.627 260.351L737.166 245.263L767.269 246.251L779.303 262.091L788.8 267.129L809.389 278.049L809.479 278.094V278.139L803.018 340.811L799.122 378.599C799.122 378.599 810.956 421.099 808.528 426.735C806.099 432.363 808.211 429.644 808.8 432.653C809.389 435.661 811.192 435.851 811.464 441.778C811.745 447.695 810.975 463.318 810.975 463.318Z" fill="#3F3D56"/>
<path d="M778.425 199.974C776.257 197.834 779.521 192.171 778.905 189.188C778.198 185.768 774.429 185.668 773.53 182.294C772.563 178.663 768.695 176.687 765.119 175.536C755.951 172.603 746.169 172.155 736.772 174.238C732.613 175.254 728.518 176.515 724.508 178.016C721.741 178.99 724.41 176.339 721.642 177.313C720.594 177.547 719.669 178.16 719.047 179.035C718.549 179.976 719.22 181.481 720.267 181.29C716.888 182.78 713.509 184.27 710.13 185.76C712.025 187.746 713.92 189.731 715.815 191.716C713.121 190.949 710.249 194.161 711.311 196.753C711.739 197.571 712.358 198.273 713.117 198.799C713.876 199.324 714.752 199.657 715.668 199.769C718.711 200.361 716.403 203.258 719.503 203.202C722.603 203.145 744.223 196.79 745.73 199.5C746.803 201.43 746.685 203.985 748.217 205.575C750.178 207.609 753.601 206.865 756.097 205.541C758.592 204.217 761.123 202.397 763.93 202.715C766.861 203.046 769.078 208.462 769.799 211.322C770.521 214.182 770.065 217.191 769.606 220.104C769.003 223.931 762.962 227.757 762.359 231.583C769.063 233.437 776.254 227.538 778.905 217.28C778.641 210.795 783.046 204.532 778.425 199.974Z" fill="#2F2E41"/>
<path d="M594.344 460.132C610.78 460.132 624.103 446.809 624.103 430.373C624.103 413.938 610.78 400.614 594.344 400.614C577.909 400.614 564.585 413.938 564.585 430.373C564.585 446.809 577.909 460.132 594.344 460.132Z" fill="#6C63FF"/>
<path d="M590.285 445.861C589.771 445.861 589.264 445.742 588.804 445.512C588.344 445.282 587.945 444.948 587.636 444.537L579.518 433.712C579.257 433.364 579.067 432.968 578.959 432.547C578.851 432.126 578.828 431.688 578.889 431.258C578.951 430.827 579.096 430.413 579.318 430.039C579.539 429.665 579.832 429.338 580.18 429.078C580.528 428.817 580.923 428.627 581.345 428.519C581.766 428.411 582.204 428.387 582.634 428.449C583.065 428.51 583.479 428.656 583.853 428.878C584.227 429.099 584.553 429.392 584.814 429.74L590.126 436.821L603.768 416.358C604.009 415.996 604.319 415.685 604.68 415.443C605.041 415.2 605.447 415.031 605.873 414.946C606.3 414.86 606.739 414.86 607.166 414.944C607.593 415.028 607.999 415.196 608.361 415.437C608.723 415.679 609.033 415.989 609.275 416.35C609.517 416.712 609.686 417.118 609.771 417.544C609.856 417.971 609.856 418.41 609.771 418.837C609.686 419.263 609.518 419.669 609.277 420.031L593.039 444.387C592.745 444.828 592.35 445.191 591.887 445.448C591.424 445.704 590.906 445.846 590.377 445.86C590.346 445.861 590.315 445.861 590.285 445.861Z" fill="white"/>
<path d="M914.945 739.191C914.946 739.348 914.916 739.503 914.856 739.647C914.796 739.792 914.709 739.923 914.598 740.034C914.487 740.145 914.356 740.232 914.211 740.292C914.067 740.352 913.912 740.382 913.755 740.381H633.465C633.15 740.381 632.847 740.256 632.624 740.033C632.401 739.81 632.275 739.507 632.275 739.191C632.275 738.876 632.401 738.573 632.624 738.35C632.847 738.127 633.15 738.001 633.465 738.001H913.755C913.912 738.001 914.067 738.031 914.211 738.091C914.356 738.151 914.487 738.238 914.598 738.349C914.709 738.46 914.796 738.591 914.856 738.735C914.916 738.88 914.946 739.035 914.945 739.191V739.191Z" fill="#CCCCCC"/>
</g>
<defs>
<clipPath id="clip0_1_2">
<rect width="920.75" height="740.381" fill="white"/>
</clipPath>
</defs>
</svg>
