<svg width="889" height="585" viewBox="0 0 889 585" fill="none" xmlns="http://www.w3.org/2000/svg">
<g clip-path="url(#clip0_1_2)" filter="url(#filter0_d_1_2)">
<path d="M792.133 421.512C792.516 439.717 790.004 457.868 784.69 475.284C784.504 475.917 784.28 476.549 784.057 477.182H674.502C676.068 469.47 678.554 461.974 681.908 454.854C691.025 435.504 705.91 418.944 720.609 402.496C740.853 379.833 760.613 357.356 763.739 327.884C771.763 340.117 778.168 353.338 782.792 367.218C777.13 369.315 771.934 372.501 767.498 376.595C766.269 377.749 764.967 379.424 765.6 381.024C766.195 382.363 767.832 382.81 769.284 383.108C772.782 383.778 776.28 384.447 779.778 385.08C782.531 385.638 785.322 386.159 788.113 386.68C790.566 398.135 791.912 409.799 792.133 421.512V421.512Z" fill="#F2F2F2"/>
<path d="M884.16 409.455C866.596 420.135 855.432 436.657 846.315 455.152C838.381 456.96 831.056 460.808 825.066 466.316C823.801 467.47 822.498 469.144 823.168 470.744C823.726 472.084 825.401 472.531 826.852 472.828C830.313 473.498 833.848 474.168 837.309 474.801C836.974 475.582 836.639 476.401 836.304 477.182H720.2C725.47 470.074 731.307 463.404 737.653 457.236C739.03 455.859 740.444 454.557 741.895 453.217C756.695 439.841 773.69 429.116 792.133 421.512C821.186 409.366 852.958 405.203 884.16 409.455Z" fill="#F2F2F2"/>
<path d="M739.551 477.182H636.173C635.608 468.904 635.658 460.595 636.322 452.324C640.452 401.23 668.25 352.556 710.189 323.083C704.831 342.173 707.584 361.152 713.166 380.205C712.385 380.466 711.604 380.689 710.896 380.987C705.235 383.084 700.039 386.27 695.602 390.364C694.374 391.518 693.072 393.193 693.704 394.793C694.262 396.132 695.937 396.579 697.388 396.877C700.886 397.546 704.384 398.216 707.845 398.849C710.636 399.407 713.427 399.928 716.218 400.486C717.52 400.71 718.823 400.97 720.125 401.23C720.311 401.677 720.423 402.086 720.609 402.496C727.159 420.544 734.303 438.741 737.653 457.236C738.482 461.877 739.053 466.561 739.364 471.265C739.476 473.238 739.551 475.21 739.551 477.182Z" fill="#F2F2F2"/>
<path d="M176.133 421.512C176.516 439.717 174.004 457.868 168.69 475.284C168.504 475.917 168.28 476.549 168.057 477.182H58.5021C60.0682 469.47 62.5545 461.974 65.9077 454.854C75.0247 435.504 89.9099 418.944 104.609 402.496C124.853 379.833 144.613 357.356 147.739 327.884C155.763 340.117 162.168 353.338 166.792 367.218C161.13 369.315 155.934 372.501 151.498 376.595C150.269 377.749 148.967 379.424 149.6 381.024C150.195 382.363 151.832 382.81 153.284 383.108C156.782 383.778 160.28 384.447 163.778 385.08C166.531 385.638 169.322 386.159 172.113 386.68C174.566 398.135 175.912 409.799 176.133 421.512V421.512Z" fill="#F2F2F2"/>
<path d="M268.16 409.455C250.596 420.135 239.432 436.657 230.315 455.152C222.381 456.96 215.056 460.808 209.066 466.316C207.801 467.47 206.498 469.144 207.168 470.744C207.726 472.084 209.401 472.531 210.852 472.828C214.313 473.498 217.848 474.168 221.309 474.801C220.974 475.582 220.639 476.401 220.304 477.182H104.2C109.47 470.074 115.307 463.404 121.653 457.236C123.03 455.859 124.444 454.557 125.895 453.217C140.695 439.841 157.69 429.116 176.133 421.512C205.186 409.366 236.958 405.203 268.16 409.455V409.455Z" fill="#F2F2F2"/>
<path d="M123.551 477.182H20.1727C19.6082 468.904 19.658 460.595 20.3217 452.324C24.4523 401.23 52.2503 352.556 94.1894 323.083C88.8308 342.173 91.5844 361.152 97.1664 380.205C96.3851 380.466 95.6036 380.689 94.8965 380.987C89.235 383.084 84.039 386.27 79.602 390.364C78.3739 391.518 77.0716 393.193 77.7041 394.793C78.2622 396.132 79.9368 396.579 81.3881 396.877C84.8861 397.546 88.3842 398.216 91.845 398.849C94.636 399.407 97.427 399.928 100.218 400.486C101.52 400.71 102.823 400.97 104.125 401.23C104.311 401.677 104.423 402.086 104.609 402.496C111.159 420.544 118.303 438.741 121.653 457.236C122.482 461.877 123.053 466.561 123.364 471.265C123.476 473.238 123.551 475.21 123.551 477.182Z" fill="#F2F2F2"/>
<path d="M212.94 458.29C212.939 461.71 213.594 465.097 214.87 468.27C215.36 469.5 215.945 470.69 216.62 471.83C217.491 473.316 218.503 474.716 219.64 476.01C222.152 478.873 225.247 481.166 228.716 482.737C232.186 484.309 235.951 485.121 239.76 485.12H631.07C638.183 485.12 645.005 482.294 650.035 477.265C655.064 472.235 657.89 465.413 657.89 458.3C657.89 451.187 655.064 444.365 650.035 439.335C645.005 434.306 638.183 431.48 631.07 431.48H239.76C232.651 431.487 225.835 434.313 220.807 439.34C215.779 444.366 212.95 451.181 212.94 458.29V458.29Z" fill="#E6E6E6"/>
<path d="M453.29 154.885H425.481C425.481 151.987 426.632 149.209 428.681 147.16C430.73 145.111 433.509 143.96 436.406 143.96H442.365C443.8 143.96 445.22 144.243 446.546 144.792C447.871 145.341 449.076 146.145 450.09 147.16C451.104 148.174 451.909 149.379 452.458 150.704C453.007 152.029 453.29 153.45 453.29 154.885V154.885H453.29Z" fill="#E6E6E6"/>
<path d="M4 473.61C12.6873 483.903 22.0835 493.577 32.12 502.56H838.7C848.737 493.577 858.133 483.903 866.82 473.61H4Z" fill="#3F3D56"/>
<path d="M400.69 376.8V479.36H472.54V376.8C472.541 376.062 472.306 375.344 471.868 374.75C471.431 374.156 470.815 373.718 470.11 373.5C469.778 373.39 469.43 373.336 469.08 373.34H404.16C403.705 373.339 403.254 373.428 402.833 373.601C402.413 373.775 402.03 374.029 401.708 374.351C401.386 374.672 401.13 375.054 400.955 375.474C400.781 375.894 400.69 376.345 400.69 376.8V376.8ZM428.73 412.04C428.749 410.018 429.565 408.086 431.002 406.663C432.438 405.24 434.378 404.442 436.4 404.442C438.422 404.442 440.362 405.24 441.798 406.663C443.234 408.086 444.051 410.018 444.07 412.04V423.94C444.06 425.967 443.247 427.908 441.81 429.338C440.372 430.768 438.427 431.571 436.4 431.571C434.373 431.571 432.428 430.768 430.99 429.338C429.553 427.908 428.74 425.967 428.73 423.94V412.04Z" fill="#2F2E41"/>
<path d="M400.47 476.08V485.97C400.472 486.482 400.675 486.973 401.037 487.336C401.398 487.7 401.888 487.906 402.4 487.91H470.83C471.343 487.907 471.834 487.702 472.195 487.338C472.557 486.975 472.76 486.483 472.76 485.97V476.08H400.47Z" fill="#3F3D56"/>
<path d="M287.66 222.28V409.54C287.662 411.926 288.611 414.214 290.298 415.902C291.986 417.589 294.274 418.538 296.66 418.54H574.16C576.546 418.538 578.834 417.589 580.522 415.902C582.209 414.214 583.158 411.926 583.16 409.54V222.28C583.154 219.896 582.204 217.611 580.517 215.926C578.83 214.241 576.544 213.293 574.16 213.29H296.66C294.276 213.293 291.99 214.241 290.303 215.926C288.616 217.611 287.666 219.896 287.66 222.28V222.28Z" fill="#3F3D56"/>
<path d="M294.17 224.61V407.23C294.172 408.505 294.68 409.727 295.581 410.629C296.483 411.53 297.705 412.038 298.98 412.04H571.85C573.125 412.038 574.347 411.53 575.249 410.629C576.15 409.727 576.658 408.505 576.66 407.23V224.61C576.66 223.333 576.153 222.109 575.252 221.205C574.35 220.302 573.127 219.793 571.85 219.79H298.98C297.703 219.793 296.48 220.302 295.578 221.205C294.677 222.109 294.17 223.333 294.17 224.61V224.61Z" fill="#6C63FF"/>
<path d="M349.81 490.24C350.088 490.588 350.441 490.869 350.843 491.061C351.244 491.254 351.685 491.352 352.13 491.35H514.47C514.914 491.349 515.352 491.25 515.753 491.059C516.154 490.867 516.507 490.589 516.786 490.245C517.066 489.9 517.265 489.497 517.37 489.065C517.474 488.634 517.481 488.185 517.39 487.75L514.87 475.78C514.766 475.292 514.541 474.838 514.216 474.459C513.891 474.08 513.476 473.788 513.01 473.61C512.672 473.477 512.313 473.41 511.95 473.41H354.64C354.277 473.41 353.918 473.477 353.58 473.61C353.114 473.788 352.699 474.08 352.374 474.459C352.049 474.838 351.825 475.292 351.72 475.78L349.2 487.75C349.11 488.184 349.119 488.633 349.224 489.064C349.33 489.494 349.53 489.896 349.81 490.24Z" fill="#2F2E41"/>
<path d="M506.285 478.566H510.309C510.578 478.566 510.797 478.347 510.797 478.078V476.054C510.797 475.784 510.578 475.566 510.309 475.566H506.285C506.016 475.566 505.797 475.784 505.797 476.054V478.078C505.797 478.347 506.016 478.566 506.285 478.566Z" fill="#3F3D56"/>
<path d="M496.285 478.566H500.309C500.578 478.566 500.797 478.347 500.797 478.078V476.054C500.797 475.784 500.578 475.566 500.309 475.566H496.285C496.016 475.566 495.797 475.784 495.797 476.054V478.078C495.797 478.347 496.016 478.566 496.285 478.566Z" fill="#3F3D56"/>
<path d="M486.285 478.566H490.309C490.578 478.566 490.797 478.347 490.797 478.078V476.054C490.797 475.784 490.578 475.566 490.309 475.566H486.285C486.016 475.566 485.797 475.784 485.797 476.054V478.078C485.797 478.347 486.016 478.566 486.285 478.566Z" fill="#3F3D56"/>
<path d="M476.285 478.566H480.309C480.578 478.566 480.797 478.347 480.797 478.078V476.054C480.797 475.784 480.578 475.566 480.309 475.566H476.285C476.016 475.566 475.797 475.784 475.797 476.054V478.078C475.797 478.347 476.016 478.566 476.285 478.566Z" fill="#3F3D56"/>
<path d="M466.285 478.566H470.309C470.578 478.566 470.797 478.347 470.797 478.078V476.054C470.797 475.784 470.578 475.566 470.309 475.566H466.285C466.016 475.566 465.797 475.784 465.797 476.054V478.078C465.797 478.347 466.016 478.566 466.285 478.566Z" fill="#3F3D56"/>
<path d="M456.285 478.566H460.309C460.578 478.566 460.797 478.347 460.797 478.078V476.054C460.797 475.784 460.578 475.566 460.309 475.566H456.285C456.016 475.566 455.797 475.784 455.797 476.054V478.078C455.797 478.347 456.016 478.566 456.285 478.566Z" fill="#3F3D56"/>
<path d="M446.285 478.566H450.309C450.578 478.566 450.797 478.347 450.797 478.078V476.054C450.797 475.784 450.578 475.566 450.309 475.566H446.285C446.016 475.566 445.797 475.784 445.797 476.054V478.078C445.797 478.347 446.016 478.566 446.285 478.566Z" fill="#3F3D56"/>
<path d="M436.285 478.566H440.309C440.578 478.566 440.797 478.347 440.797 478.078V476.054C440.797 475.784 440.578 475.566 440.309 475.566H436.285C436.016 475.566 435.797 475.784 435.797 476.054V478.078C435.797 478.347 436.016 478.566 436.285 478.566Z" fill="#3F3D56"/>
<path d="M426.285 478.566H430.309C430.578 478.566 430.797 478.347 430.797 478.078V476.054C430.797 475.784 430.578 475.566 430.309 475.566H426.285C426.016 475.566 425.797 475.784 425.797 476.054V478.078C425.797 478.347 426.016 478.566 426.285 478.566Z" fill="#3F3D56"/>
<path d="M416.285 478.566H420.309C420.578 478.566 420.797 478.347 420.797 478.078V476.054C420.797 475.784 420.578 475.566 420.309 475.566H416.285C416.016 475.566 415.797 475.784 415.797 476.054V478.078C415.797 478.347 416.016 478.566 416.285 478.566Z" fill="#3F3D56"/>
<path d="M406.285 478.566H410.309C410.578 478.566 410.797 478.347 410.797 478.078V476.054C410.797 475.784 410.578 475.566 410.309 475.566H406.285C406.016 475.566 405.797 475.784 405.797 476.054V478.078C405.797 478.347 406.016 478.566 406.285 478.566Z" fill="#3F3D56"/>
<path d="M396.285 478.566H400.309C400.578 478.566 400.797 478.347 400.797 478.078V476.054C400.797 475.784 400.578 475.566 400.309 475.566H396.285C396.016 475.566 395.797 475.784 395.797 476.054V478.078C395.797 478.347 396.016 478.566 396.285 478.566Z" fill="#3F3D56"/>
<path d="M386.285 478.566H390.309C390.578 478.566 390.797 478.347 390.797 478.078V476.054C390.797 475.784 390.578 475.566 390.309 475.566H386.285C386.016 475.566 385.797 475.784 385.797 476.054V478.078C385.797 478.347 386.016 478.566 386.285 478.566Z" fill="#3F3D56"/>
<path d="M376.285 478.566H380.309C380.578 478.566 380.797 478.347 380.797 478.078V476.054C380.797 475.784 380.578 475.566 380.309 475.566H376.285C376.016 475.566 375.797 475.784 375.797 476.054V478.078C375.797 478.347 376.016 478.566 376.285 478.566Z" fill="#3F3D56"/>
<path d="M366.285 478.566H370.309C370.578 478.566 370.797 478.347 370.797 478.078V476.054C370.797 475.784 370.578 475.566 370.309 475.566H366.285C366.016 475.566 365.797 475.784 365.797 476.054V478.078C365.797 478.347 366.016 478.566 366.285 478.566Z" fill="#3F3D56"/>
<path d="M356.285 478.566H360.309C360.578 478.566 360.797 478.347 360.797 478.078V476.054C360.797 475.784 360.578 475.566 360.309 475.566H356.285C356.016 475.566 355.797 475.784 355.797 476.054V478.078C355.797 478.347 356.016 478.566 356.285 478.566Z" fill="#3F3D56"/>
<path d="M506.403 483.566H510.427C510.697 483.566 510.915 483.347 510.915 483.078V481.054C510.915 480.784 510.697 480.566 510.427 480.566H506.403C506.134 480.566 505.915 480.784 505.915 481.054V483.078C505.915 483.347 506.134 483.566 506.403 483.566Z" fill="#3F3D56"/>
<path d="M496.403 483.566H500.427C500.697 483.566 500.915 483.347 500.915 483.078V481.054C500.915 480.784 500.697 480.566 500.427 480.566H496.403C496.134 480.566 495.915 480.784 495.915 481.054V483.078C495.915 483.347 496.134 483.566 496.403 483.566Z" fill="#3F3D56"/>
<path d="M486.403 483.566H490.427C490.697 483.566 490.915 483.347 490.915 483.078V481.054C490.915 480.784 490.697 480.566 490.427 480.566H486.403C486.134 480.566 485.915 480.784 485.915 481.054V483.078C485.915 483.347 486.134 483.566 486.403 483.566Z" fill="#3F3D56"/>
<path d="M476.403 483.566H480.427C480.697 483.566 480.915 483.347 480.915 483.078V481.054C480.915 480.784 480.697 480.566 480.427 480.566H476.403C476.134 480.566 475.915 480.784 475.915 481.054V483.078C475.915 483.347 476.134 483.566 476.403 483.566Z" fill="#3F3D56"/>
<path d="M466.403 483.566H470.427C470.697 483.566 470.915 483.347 470.915 483.078V481.054C470.915 480.784 470.697 480.566 470.427 480.566H466.403C466.134 480.566 465.915 480.784 465.915 481.054V483.078C465.915 483.347 466.134 483.566 466.403 483.566Z" fill="#3F3D56"/>
<path d="M456.403 483.566H460.427C460.697 483.566 460.915 483.347 460.915 483.078V481.054C460.915 480.784 460.697 480.566 460.427 480.566H456.403C456.134 480.566 455.915 480.784 455.915 481.054V483.078C455.915 483.347 456.134 483.566 456.403 483.566Z" fill="#3F3D56"/>
<path d="M446.403 483.566H450.427C450.697 483.566 450.915 483.347 450.915 483.078V481.054C450.915 480.784 450.697 480.566 450.427 480.566H446.403C446.134 480.566 445.915 480.784 445.915 481.054V483.078C445.915 483.347 446.134 483.566 446.403 483.566Z" fill="#3F3D56"/>
<path d="M436.403 483.566H440.427C440.697 483.566 440.915 483.347 440.915 483.078V481.054C440.915 480.784 440.697 480.566 440.427 480.566H436.403C436.134 480.566 435.915 480.784 435.915 481.054V483.078C435.915 483.347 436.134 483.566 436.403 483.566Z" fill="#3F3D56"/>
<path d="M426.403 483.566H430.427C430.697 483.566 430.915 483.347 430.915 483.078V481.054C430.915 480.784 430.697 480.566 430.427 480.566H426.403C426.134 480.566 425.915 480.784 425.915 481.054V483.078C425.915 483.347 426.134 483.566 426.403 483.566Z" fill="#3F3D56"/>
<path d="M416.403 483.566H420.427C420.697 483.566 420.915 483.347 420.915 483.078V481.054C420.915 480.784 420.697 480.566 420.427 480.566H416.403C416.134 480.566 415.915 480.784 415.915 481.054V483.078C415.915 483.347 416.134 483.566 416.403 483.566Z" fill="#3F3D56"/>
<path d="M406.403 483.566H410.427C410.697 483.566 410.915 483.347 410.915 483.078V481.054C410.915 480.784 410.697 480.566 410.427 480.566H406.403C406.134 480.566 405.915 480.784 405.915 481.054V483.078C405.915 483.347 406.134 483.566 406.403 483.566Z" fill="#3F3D56"/>
<path d="M396.403 483.566H400.427C400.697 483.566 400.915 483.347 400.915 483.078V481.054C400.915 480.784 400.697 480.566 400.427 480.566H396.403C396.134 480.566 395.915 480.784 395.915 481.054V483.078C395.915 483.347 396.134 483.566 396.403 483.566Z" fill="#3F3D56"/>
<path d="M386.403 483.566H390.427C390.697 483.566 390.915 483.347 390.915 483.078V481.054C390.915 480.784 390.697 480.566 390.427 480.566H386.403C386.134 480.566 385.915 480.784 385.915 481.054V483.078C385.915 483.347 386.134 483.566 386.403 483.566Z" fill="#3F3D56"/>
<path d="M376.403 483.566H380.427C380.697 483.566 380.915 483.347 380.915 483.078V481.054C380.915 480.784 380.697 480.566 380.427 480.566H376.403C376.134 480.566 375.915 480.784 375.915 481.054V483.078C375.915 483.347 376.134 483.566 376.403 483.566Z" fill="#3F3D56"/>
<path d="M366.403 483.566H370.427C370.697 483.566 370.915 483.347 370.915 483.078V481.054C370.915 480.784 370.697 480.566 370.427 480.566H366.403C366.134 480.566 365.915 480.784 365.915 481.054V483.078C365.915 483.347 366.134 483.566 366.403 483.566Z" fill="#3F3D56"/>
<path d="M356.403 483.566H360.427C360.697 483.566 360.915 483.347 360.915 483.078V481.054C360.915 480.784 360.697 480.566 360.427 480.566H356.403C356.134 480.566 355.915 480.784 355.915 481.054V483.078C355.915 483.347 356.134 483.566 356.403 483.566Z" fill="#3F3D56"/>
<path d="M423.403 489.566H462.427C462.697 489.566 462.915 489.347 462.915 489.078V487.054C462.915 486.784 462.697 486.566 462.427 486.566H423.403C423.134 486.566 422.915 486.784 422.915 487.054V489.078C422.915 489.347 423.134 489.566 423.403 489.566Z" fill="#3F3D56"/>
<path d="M312.692 244.947H568.015C568.281 244.941 568.533 244.831 568.719 244.642C568.905 244.452 569.009 244.197 569.009 243.931C569.009 243.666 568.905 243.411 568.719 243.221C568.533 243.031 568.281 242.922 568.015 242.916H312.692C312.426 242.922 312.174 243.031 311.988 243.221C311.803 243.411 311.699 243.666 311.699 243.931C311.699 244.197 311.803 244.452 311.988 244.642C312.174 244.831 312.426 244.941 312.692 244.947V244.947Z" fill="#3F3D56"/>
<path d="M550.635 237.732C553.921 237.732 556.585 235.008 556.585 231.649C556.585 228.289 553.921 225.566 550.635 225.566C547.349 225.566 544.685 228.289 544.685 231.649C544.685 235.008 547.349 237.732 550.635 237.732Z" fill="#3F3D56"/>
<path d="M530.079 237.732C533.365 237.732 536.029 235.008 536.029 231.649C536.029 228.289 533.365 225.566 530.079 225.566C526.793 225.566 524.129 228.289 524.129 231.649C524.129 235.008 526.793 237.732 530.079 237.732Z" fill="#3F3D56"/>
<path d="M509.523 237.732C512.809 237.732 515.473 235.008 515.473 231.649C515.473 228.289 512.809 225.566 509.523 225.566C506.237 225.566 503.573 228.289 503.573 231.649C503.573 235.008 506.237 237.732 509.523 237.732Z" fill="#3F3D56"/>
<path d="M323.98 228.18C323.979 228.324 324.007 228.466 324.061 228.599C324.116 228.733 324.196 228.854 324.297 228.956C324.398 229.058 324.519 229.139 324.651 229.195C324.784 229.25 324.926 229.279 325.07 229.28H339.67C339.959 229.273 340.233 229.154 340.435 228.947C340.637 228.741 340.75 228.464 340.75 228.175C340.75 227.886 340.637 227.609 340.435 227.403C340.233 227.196 339.959 227.077 339.67 227.07H325.07C324.779 227.074 324.5 227.192 324.296 227.4C324.092 227.608 323.978 227.889 323.98 228.18V228.18Z" fill="#3F3D56"/>
<path d="M323.98 232.33C323.979 232.474 324.007 232.616 324.061 232.749C324.116 232.883 324.196 233.004 324.297 233.106C324.398 233.208 324.519 233.289 324.651 233.345C324.784 233.4 324.926 233.429 325.07 233.43H339.67C339.959 233.424 340.234 233.304 340.436 233.098C340.638 232.891 340.751 232.614 340.751 232.325C340.751 232.036 340.638 231.759 340.436 231.552C340.234 231.346 339.959 231.226 339.67 231.22H325.07C324.779 231.224 324.5 231.342 324.296 231.55C324.092 231.758 323.978 232.039 323.98 232.33V232.33Z" fill="#3F3D56"/>
<path d="M323.98 236.47C323.978 236.762 324.092 237.042 324.296 237.25C324.5 237.458 324.779 237.576 325.07 237.58H339.67C339.959 237.573 340.233 237.454 340.435 237.247C340.637 237.041 340.75 236.764 340.75 236.475C340.75 236.186 340.637 235.909 340.435 235.703C340.233 235.496 339.959 235.377 339.67 235.37H325.07C324.926 235.371 324.784 235.4 324.651 235.455C324.519 235.511 324.398 235.592 324.297 235.694C324.196 235.796 324.116 235.917 324.061 236.051C324.007 236.184 323.979 236.326 323.98 236.47V236.47Z" fill="#3F3D56"/>
<path d="M328.492 268.543H323.246C321.655 268.543 320.366 269.833 320.366 271.423C320.366 273.014 321.655 274.303 323.246 274.303H328.492C330.083 274.303 331.372 273.014 331.372 271.423C331.372 269.833 330.083 268.543 328.492 268.543Z" fill="#E6E6E6"/>
<path d="M388.492 268.543H383.246C381.655 268.543 380.366 269.833 380.366 271.423C380.366 273.014 381.655 274.303 383.246 274.303H388.492C390.083 274.303 391.372 273.014 391.372 271.423C391.372 269.833 390.083 268.543 388.492 268.543Z" fill="#E6E6E6"/>
<path d="M405.492 268.543H400.246C398.655 268.543 397.366 269.833 397.366 271.423C397.366 273.014 398.655 274.303 400.246 274.303H405.492C407.083 274.303 408.372 273.014 408.372 271.423C408.372 269.833 407.083 268.543 405.492 268.543Z" fill="#E6E6E6"/>
<path d="M372.172 268.063H339.566C337.976 268.063 336.686 269.353 336.686 270.943C336.686 272.534 337.976 273.823 339.566 273.823H372.172C373.762 273.823 375.052 272.534 375.052 270.943C375.052 269.353 373.762 268.063 372.172 268.063Z" fill="#E6E6E6"/>
<path d="M452.172 268.063H419.566C417.976 268.063 416.686 269.353 416.686 270.943C416.686 272.534 417.976 273.823 419.566 273.823H452.172C453.762 273.823 455.052 272.534 455.052 270.943C455.052 269.353 453.762 268.063 452.172 268.063Z" fill="#E6E6E6"/>
<path d="M344.492 281.543H339.246C337.655 281.543 336.366 282.833 336.366 284.423C336.366 286.014 337.655 287.303 339.246 287.303H344.492C346.083 287.303 347.372 286.014 347.372 284.423C347.372 282.833 346.083 281.543 344.492 281.543Z" fill="#E6E6E6"/>
<path d="M404.492 281.543H399.246C397.655 281.543 396.366 282.833 396.366 284.423C396.366 286.014 397.655 287.303 399.246 287.303H404.492C406.083 287.303 407.372 286.014 407.372 284.423C407.372 282.833 406.083 281.543 404.492 281.543Z" fill="#E6E6E6"/>
<path d="M421.492 281.543H416.246C414.655 281.543 413.366 282.833 413.366 284.423C413.366 286.014 414.655 287.303 416.246 287.303H421.492C423.083 287.303 424.372 286.014 424.372 284.423C424.372 282.833 423.083 281.543 421.492 281.543Z" fill="#E6E6E6"/>
<path d="M388.172 281.063H355.566C353.976 281.063 352.686 282.353 352.686 283.943C352.686 285.534 353.976 286.823 355.566 286.823H388.172C389.762 286.823 391.052 285.534 391.052 283.943C391.052 282.353 389.762 281.063 388.172 281.063Z" fill="#E6E6E6"/>
<path d="M468.172 281.063H435.566C433.976 281.063 432.686 282.353 432.686 283.943C432.686 285.534 433.976 286.823 435.566 286.823H468.172C469.762 286.823 471.052 285.534 471.052 283.943C471.052 282.353 469.762 281.063 468.172 281.063Z" fill="#E6E6E6"/>
<path d="M360.492 294.543H355.246C353.655 294.543 352.366 295.833 352.366 297.423C352.366 299.014 353.655 300.303 355.246 300.303H360.492C362.083 300.303 363.372 299.014 363.372 297.423C363.372 295.833 362.083 294.543 360.492 294.543Z" fill="#E6E6E6"/>
<path d="M420.492 294.543H415.246C413.655 294.543 412.366 295.833 412.366 297.423C412.366 299.014 413.655 300.303 415.246 300.303H420.492C422.083 300.303 423.372 299.014 423.372 297.423C423.372 295.833 422.083 294.543 420.492 294.543Z" fill="#E6E6E6"/>
<path d="M437.492 294.543H432.246C430.655 294.543 429.366 295.833 429.366 297.423C429.366 299.014 430.655 300.303 432.246 300.303H437.492C439.083 300.303 440.372 299.014 440.372 297.423C440.372 295.833 439.083 294.543 437.492 294.543Z" fill="#E6E6E6"/>
<path d="M404.172 294.063H371.566C369.976 294.063 368.686 295.353 368.686 296.943C368.686 298.534 369.976 299.823 371.566 299.823H404.172C405.762 299.823 407.052 298.534 407.052 296.943C407.052 295.353 405.762 294.063 404.172 294.063Z" fill="#E6E6E6"/>
<path d="M484.172 294.063H451.566C449.976 294.063 448.686 295.353 448.686 296.943C448.686 298.534 449.976 299.823 451.566 299.823H484.172C485.762 299.823 487.052 298.534 487.052 296.943C487.052 295.353 485.762 294.063 484.172 294.063Z" fill="#E6E6E6"/>
<path d="M376.492 307.543H371.246C369.655 307.543 368.366 308.833 368.366 310.423C368.366 312.014 369.655 313.303 371.246 313.303H376.492C378.083 313.303 379.372 312.014 379.372 310.423C379.372 308.833 378.083 307.543 376.492 307.543Z" fill="#E6E6E6"/>
<path d="M436.492 307.543H431.246C429.655 307.543 428.366 308.833 428.366 310.423C428.366 312.014 429.655 313.303 431.246 313.303H436.492C438.083 313.303 439.372 312.014 439.372 310.423C439.372 308.833 438.083 307.543 436.492 307.543Z" fill="#E6E6E6"/>
<path d="M453.492 307.543H448.246C446.655 307.543 445.366 308.833 445.366 310.423C445.366 312.014 446.655 313.303 448.246 313.303H453.492C455.083 313.303 456.372 312.014 456.372 310.423C456.372 308.833 455.083 307.543 453.492 307.543Z" fill="#E6E6E6"/>
<path d="M420.172 307.063H387.566C385.976 307.063 384.686 308.353 384.686 309.943C384.686 311.534 385.976 312.823 387.566 312.823H420.172C421.762 312.823 423.052 311.534 423.052 309.943C423.052 308.353 421.762 307.063 420.172 307.063Z" fill="#E6E6E6"/>
<path d="M388.492 359.237H383.246C381.655 359.237 380.366 360.526 380.366 362.117C380.366 363.707 381.655 364.997 383.246 364.997H388.492C390.083 364.997 391.372 363.707 391.372 362.117C391.372 360.526 390.083 359.237 388.492 359.237Z" fill="#E6E6E6"/>
<path d="M405.492 359.237H400.246C398.655 359.237 397.366 360.526 397.366 362.117C397.366 363.707 398.655 364.997 400.246 364.997H405.492C407.083 364.997 408.372 363.707 408.372 362.117C408.372 360.526 407.083 359.237 405.492 359.237Z" fill="#E6E6E6"/>
<path d="M452.172 359.717H419.566C417.976 359.717 416.686 361.006 416.686 362.597C416.686 364.188 417.976 365.477 419.566 365.477H452.172C453.762 365.477 455.052 364.188 455.052 362.597C455.052 361.006 453.762 359.717 452.172 359.717Z" fill="#E6E6E6"/>
<path d="M328.492 359.237H323.246C321.655 359.237 320.366 360.526 320.366 362.117C320.366 363.707 321.655 364.997 323.246 364.997H328.492C330.083 364.997 331.372 363.707 331.372 362.117C331.372 360.526 330.083 359.237 328.492 359.237Z" fill="#E6E6E6"/>
<path d="M372.172 359.717H339.566C337.976 359.717 336.686 361.006 336.686 362.597C336.686 364.188 337.976 365.477 339.566 365.477H372.172C373.762 365.477 375.052 364.188 375.052 362.597C375.052 361.006 373.762 359.717 372.172 359.717Z" fill="#E6E6E6"/>
<path d="M344.492 346.237H339.246C337.655 346.237 336.366 347.526 336.366 349.117C336.366 350.707 337.655 351.997 339.246 351.997H344.492C346.083 351.997 347.372 350.707 347.372 349.117C347.372 347.526 346.083 346.237 344.492 346.237Z" fill="#E6E6E6"/>
<path d="M404.492 346.237H399.246C397.655 346.237 396.366 347.526 396.366 349.117C396.366 350.707 397.655 351.997 399.246 351.997H404.492C406.083 351.997 407.372 350.707 407.372 349.117C407.372 347.526 406.083 346.237 404.492 346.237Z" fill="#E6E6E6"/>
<path d="M421.492 346.237H416.246C414.655 346.237 413.366 347.526 413.366 349.117C413.366 350.707 414.655 351.997 416.246 351.997H421.492C423.083 351.997 424.372 350.707 424.372 349.117C424.372 347.526 423.083 346.237 421.492 346.237Z" fill="#E6E6E6"/>
<path d="M388.172 346.717H355.566C353.976 346.717 352.686 348.006 352.686 349.597C352.686 351.188 353.976 352.477 355.566 352.477H388.172C389.762 352.477 391.052 351.188 391.052 349.597C391.052 348.006 389.762 346.717 388.172 346.717Z" fill="#E6E6E6"/>
<path d="M360.492 333.237H355.246C353.655 333.237 352.366 334.526 352.366 336.117C352.366 337.707 353.655 338.997 355.246 338.997H360.492C362.083 338.997 363.372 337.707 363.372 336.117C363.372 334.526 362.083 333.237 360.492 333.237Z" fill="#E6E6E6"/>
<path d="M420.492 333.237H415.246C413.655 333.237 412.366 334.526 412.366 336.117C412.366 337.707 413.655 338.997 415.246 338.997H420.492C422.083 338.997 423.372 337.707 423.372 336.117C423.372 334.526 422.083 333.237 420.492 333.237Z" fill="#E6E6E6"/>
<path d="M437.492 333.237H432.246C430.655 333.237 429.366 334.526 429.366 336.117C429.366 337.707 430.655 338.997 432.246 338.997H437.492C439.083 338.997 440.372 337.707 440.372 336.117C440.372 334.526 439.083 333.237 437.492 333.237Z" fill="#E6E6E6"/>
<path d="M404.172 333.717H371.566C369.976 333.717 368.686 335.006 368.686 336.597C368.686 338.188 369.976 339.477 371.566 339.477H404.172C405.762 339.477 407.052 338.188 407.052 336.597C407.052 335.006 405.762 333.717 404.172 333.717Z" fill="#E6E6E6"/>
<path d="M376.492 320.237H371.246C369.655 320.237 368.366 321.526 368.366 323.117C368.366 324.707 369.655 325.997 371.246 325.997H376.492C378.083 325.997 379.372 324.707 379.372 323.117C379.372 321.526 378.083 320.237 376.492 320.237Z" fill="#E6E6E6"/>
<path d="M436.492 320.237H431.246C429.655 320.237 428.366 321.526 428.366 323.117C428.366 324.707 429.655 325.997 431.246 325.997H436.492C438.083 325.997 439.372 324.707 439.372 323.117C439.372 321.526 438.083 320.237 436.492 320.237Z" fill="#E6E6E6"/>
<path d="M453.492 320.237H448.246C446.655 320.237 445.366 321.526 445.366 323.117C445.366 324.707 446.655 325.997 448.246 325.997H453.492C455.083 325.997 456.372 324.707 456.372 323.117C456.372 321.526 455.083 320.237 453.492 320.237Z" fill="#E6E6E6"/>
<path d="M420.172 320.717H387.566C385.976 320.717 384.686 322.006 384.686 323.597C384.686 325.188 385.976 326.477 387.566 326.477H420.172C421.762 326.477 423.052 325.188 423.052 323.597C423.052 322.006 421.762 320.717 420.172 320.717Z" fill="#E6E6E6"/>
<path d="M353.912 545.952C353.692 546.062 353.472 546.172 353.252 546.272C351.862 546.962 350.462 547.642 349.052 548.312C344.832 550.322 340.559 552.232 336.232 554.042C324.848 558.804 313.166 562.822 301.262 566.072C299.262 553.602 297.322 524.192 295.462 502.562C295.112 498.492 294.762 494.702 294.412 491.352C294.08 486.954 293.448 482.584 292.522 478.272C292.431 477.934 292.3 477.609 292.132 477.302C292.322 479.032 292.522 484.192 292.712 491.352C292.812 494.702 292.902 498.492 293.002 502.562C293.472 523.382 293.962 551.712 294.452 567.842C293.062 568.182 291.662 568.522 290.262 568.842C289.382 569.052 288.492 569.252 287.602 569.442C286.522 569.682 285.442 569.922 284.362 570.142C283.232 570.382 282.102 570.612 280.972 570.832C262.506 574.46 243.731 576.282 224.912 576.272C223.662 576.272 222.422 576.262 221.172 576.252C220.792 576.252 220.412 576.242 220.022 576.232C218.922 576.212 217.782 576.192 216.622 576.162C194.383 575.547 172.289 572.363 150.782 566.672L151.652 502.562L151.802 491.352L151.862 487.102C151.367 488.469 151.07 489.901 150.982 491.352C150.632 494.082 150.272 497.952 149.912 502.562C148.542 520.322 147.132 548.972 145.672 565.272C128.382 560.352 115.742 555.862 99.9419 547.962C99.3319 547.662 98.7119 547.352 98.1019 547.042C98.2119 546.272 98.3319 545.502 98.4419 544.712C100.232 532.272 98.1219 516.082 100.102 502.562C101.612 492.132 103.172 482.112 104.742 473.612C106.642 463.382 108.572 455.342 110.482 451.432C112.682 446.922 114.882 442.482 117.012 438.232C117.932 436.402 118.835 434.605 119.722 432.842C120.202 431.892 120.682 430.952 121.152 430.032C123.292 425.842 125.312 421.972 127.162 418.542C128.462 416.132 129.662 413.952 130.762 412.042C132.052 409.792 133.192 407.932 134.132 406.522C141.075 395.998 151.406 388.161 163.412 384.312L163.712 384.232L164.002 384.352L164.332 384.502L183.392 377.532L191.902 357.042L235.612 354.352L242.672 359.722L246.282 362.472L250.132 365.402L257.212 370.792L259.222 371.412L262.212 372.332L282.662 378.612L282.872 378.522L283.172 378.602C294.097 382.099 303.661 388.916 310.532 398.102C311.212 398.982 311.842 399.892 312.452 400.812C314.112 403.272 316.352 407.162 318.992 412.042C320.082 414.052 321.232 416.232 322.442 418.542C323.172 419.932 329.472 439.592 335.602 459.672C341.332 478.472 346.912 497.642 347.642 502.562C347.772 503.472 347.912 504.392 348.042 505.302C348.872 510.992 349.692 516.722 350.482 522.312C351.652 530.602 352.792 538.602 353.882 545.752C353.892 545.822 353.902 545.882 353.912 545.952Z" fill="#3F3D56"/>
<path opacity="0.2" d="M307.59 473.566L299.093 440.774L291.59 469.07L307.59 473.566Z" fill="black"/>
<path d="M19.8293 473.186C20.2699 474.469 21.1056 475.579 22.2165 476.357C23.3274 477.135 24.6563 477.541 26.0124 477.517L52.5042 476.835C53.8703 476.808 55.191 476.34 56.269 475.501C57.3471 474.662 58.1245 473.496 58.4851 472.178L62.234 432.091C63.564 432.693 65.012 432.991 66.4719 432.962C69.0334 432.897 71.4645 431.818 73.2303 429.961C74.9961 428.105 75.952 425.622 75.8877 423.061C75.8234 420.499 74.7442 418.068 72.8874 416.302C71.0307 414.537 68.5485 413.581 65.987 413.645C65.4035 413.643 64.8214 413.704 64.2508 413.826C63.6302 413.154 62.8759 412.62 62.0365 412.258C61.197 411.896 60.291 411.713 59.3768 411.723L18.6262 412.775C18.2882 412.787 17.9519 412.829 17.621 412.9C16.7274 413.066 15.8798 413.422 15.1353 413.944C14.3908 414.466 13.7667 415.141 13.3049 415.924C12.8432 416.707 12.5546 417.58 12.4585 418.484C12.3624 419.388 12.4611 420.302 12.7479 421.164L19.8293 473.186ZM63.0027 429.369L65.6704 419.816C65.9738 418.713 65.9809 417.549 65.6907 416.442C65.8202 416.441 65.9344 416.38 66.0638 416.38C67.8929 416.342 69.6624 417.031 70.9843 418.296C72.3061 419.56 73.0725 421.298 73.1153 423.127C73.1582 424.956 72.474 426.727 71.2127 428.053C69.9515 429.378 68.2163 430.149 66.3874 430.197C65.2049 430.234 64.0347 429.948 63.0027 429.369V429.369Z" fill="#2F2E41"/>
<path d="M17.6211 412.9C18.4892 417.864 28.2501 421.353 39.9869 420.747C50.7796 420.25 59.6044 416.46 61.2211 411.968C60.6228 411.791 60.0006 411.708 59.3768 411.723L18.6263 412.775C18.2882 412.787 17.9519 412.829 17.6211 412.9V412.9Z" fill="#3F3D56"/>
<path d="M42.1379 451.158C42.1916 451.144 42.2426 451.122 42.2889 451.091L48.042 447.325C48.1116 447.28 48.1687 447.218 48.2083 447.145C48.2478 447.072 48.2686 446.99 48.2686 446.907C48.2686 446.824 48.248 446.743 48.2084 446.67C48.1689 446.597 48.1118 446.535 48.0423 446.489L42.0625 442.573C42.0077 442.536 41.9461 442.511 41.8815 442.499C41.8169 442.486 41.7505 442.487 41.686 442.5C41.6216 442.513 41.5604 442.539 41.5059 442.576C41.4515 442.613 41.4049 442.66 41.3688 442.715C41.3328 442.77 41.3079 442.832 41.2957 442.897C41.2835 442.961 41.2842 443.028 41.2977 443.092C41.3113 443.157 41.3374 443.218 41.3746 443.272C41.4119 443.326 41.4594 443.373 41.5146 443.408L46.8555 446.907L41.7415 450.255C41.6425 450.319 41.5697 450.417 41.5359 450.53C41.5022 450.644 41.5098 450.765 41.5574 450.874C41.6049 450.982 41.6893 451.07 41.7956 451.122C41.9019 451.174 42.0232 451.187 42.1379 451.158H42.1379Z" fill="#6C63FF"/>
<path d="M33.0512 451.577C33.1477 451.552 33.2348 451.499 33.3012 451.425C33.3676 451.351 33.4103 451.259 33.4238 451.16C33.4374 451.061 33.4211 450.961 33.3772 450.871C33.3333 450.782 33.2636 450.708 33.1772 450.658L27.8742 447.618L32.9998 443.811C33.0524 443.771 33.0969 443.722 33.1306 443.666C33.1643 443.61 33.1865 443.547 33.1961 443.482C33.2057 443.417 33.2023 443.351 33.1863 443.288C33.1703 443.224 33.142 443.164 33.1028 443.112C33.0637 443.059 33.0146 443.014 32.9583 442.981C32.902 442.947 32.8396 442.925 32.7747 442.915C32.7097 442.906 32.6436 442.909 32.5799 442.925C32.5163 442.941 32.4565 442.969 32.4038 443.009L26.6652 447.271C26.5985 447.321 26.5452 447.386 26.51 447.461C26.4749 447.536 26.4591 447.619 26.4639 447.702C26.4688 447.785 26.4943 447.865 26.538 447.936C26.5817 448.006 26.6423 448.065 26.7143 448.106L32.6796 451.526C32.7921 451.59 32.9254 451.608 33.0512 451.577V451.577Z" fill="#6C63FF"/>
<path d="M41.5657 454.458C41.6141 454.445 41.6603 454.426 41.7027 454.4C41.7589 454.366 41.8078 454.321 41.8466 454.268C41.8854 454.215 41.9134 454.155 41.9289 454.091C41.9445 454.027 41.9473 453.961 41.9372 453.896C41.9272 453.831 41.9044 453.769 41.8702 453.713L33.7148 440.304C33.6454 440.192 33.5343 440.111 33.4057 440.08C33.277 440.049 33.1414 440.07 33.0284 440.139C32.9155 440.208 32.8343 440.319 32.8028 440.447C32.7713 440.576 32.792 440.712 32.8603 440.825L41.0158 454.233C41.0715 454.324 41.1549 454.395 41.2538 454.436C41.3528 454.476 41.4621 454.484 41.5657 454.458V454.458Z" fill="#6C63FF"/>
<path d="M789.149 547.04C788.539 547.35 787.919 547.66 787.309 547.96C771.509 555.86 758.869 560.35 741.579 565.27C740.119 548.97 738.709 520.32 737.339 502.56C736.979 497.95 736.619 494.08 736.269 491.35C736.181 489.898 735.884 488.467 735.389 487.1L735.449 491.35L735.599 502.56L736.469 566.67C714.962 572.361 692.868 575.545 670.629 576.16C669.469 576.19 668.329 576.21 667.229 576.23C666.839 576.24 666.459 576.25 666.079 576.25C664.829 576.26 663.589 576.27 662.339 576.27C638.903 576.287 615.552 573.457 592.799 567.84C593.289 551.71 593.779 523.38 594.249 502.56C594.349 498.49 594.439 494.7 594.539 491.35C594.729 484.19 594.929 479.03 595.119 477.3C594.951 477.607 594.82 477.932 594.729 478.27C593.803 482.582 593.171 486.952 592.839 491.35C592.489 494.7 592.139 498.49 591.789 502.56C589.929 524.19 587.989 553.6 585.989 566.07C574.085 562.82 562.403 558.802 551.019 554.04C545.019 551.54 539.126 548.843 533.339 545.95C534.439 538.75 535.589 530.68 536.769 522.31C537.689 515.82 538.639 509.15 539.609 502.56C541.109 492.38 592.069 382.45 604.079 378.6L604.379 378.52L604.589 378.61L625.039 372.33L628.029 371.41L630.039 370.79L637.119 365.4L640.969 362.47L644.579 359.72L651.639 354.35L695.349 357.04L703.859 377.53L722.919 384.5L723.249 384.35L723.539 384.23L723.839 384.31C735.845 388.159 746.176 395.996 753.119 406.52C754.059 407.93 755.199 409.79 756.489 412.04C757.589 413.95 758.789 416.13 760.089 418.54C761.939 421.97 763.959 425.84 766.099 430.03C766.569 430.95 767.049 431.89 767.529 432.84C768.419 434.6 769.322 436.397 770.239 438.23C772.369 442.48 774.569 446.92 776.769 451.43C778.679 455.34 780.609 463.38 782.509 473.61C784.079 482.11 785.639 492.13 787.149 502.56C789.129 516.08 787.019 532.27 788.809 544.71C788.919 545.5 789.039 546.27 789.149 547.04Z" fill="#3F3D56"/>
<path d="M660.954 346.995C689.03 346.995 711.791 324.234 711.791 296.158C711.791 268.082 689.03 245.322 660.954 245.322C632.878 245.322 610.118 268.082 610.118 296.158C610.118 324.234 632.878 346.995 660.954 346.995Z" fill="#FFB6B6"/>
<path opacity="0.2" d="M579.659 473.566L588.156 440.774L595.659 469.07L579.659 473.566Z" fill="black"/>
<path d="M805.769 452.2C802.729 494.08 805.879 512.52 789.099 547.05C773.832 554.523 757.929 560.62 741.579 565.27C739.879 565.75 738.176 566.217 736.469 566.67C714.962 572.361 692.868 575.545 670.629 576.16C669.469 576.19 668.329 576.21 667.229 576.23C666.839 576.24 666.459 576.25 666.079 576.25C664.829 576.26 663.589 576.27 662.339 576.27C638.903 576.287 615.552 573.457 592.799 567.84C590.519 567.28 588.249 566.69 585.989 566.07C574.085 562.82 562.404 558.802 551.019 554.04C545.019 551.54 539.126 548.843 533.339 545.95C532.029 545.29 530.719 544.63 529.429 543.95C522.799 532.29 519.029 518.11 518.949 501.07C523.539 471.71 795.629 426.88 805.769 452.2Z" fill="#2F2E41"/>
<path opacity="0.2" d="M805.761 459.372C805.917 456.779 806.09 454.101 806.293 451.312C796.153 425.992 524.063 470.822 519.473 500.182C519.485 502.874 519.6 505.486 519.794 508.037C530.909 479.059 789.399 436.451 805.761 459.372Z" fill="black"/>
<path d="M512.182 454.175L534.516 443.008L515.905 392.758L511 367.416C510.363 364.123 508.872 361.056 506.678 358.52C504.484 355.984 501.663 354.068 498.496 352.964C495.33 351.86 491.929 351.606 488.633 352.228C485.338 352.85 482.264 354.326 479.718 356.508V356.508C475.944 359.742 473.575 364.316 473.11 369.264C472.645 374.211 474.121 379.146 477.225 383.027L495.432 405.786L512.182 454.175Z" fill="#FFB6B6"/>
<path d="M534.516 433.703L504.738 448.592L527.336 519.401C528.959 524.486 531.868 529.065 535.782 532.694C539.695 536.324 544.48 538.881 549.672 540.117C556.074 541.642 562.796 541.087 568.862 538.535C574.928 535.982 580.023 531.564 583.41 525.92L643.334 423.206C647.581 416.129 648.892 407.671 646.987 399.64C645.082 391.609 640.112 384.641 633.139 380.224V380.224C629.388 377.849 625.18 376.29 620.787 375.649C616.395 375.008 611.916 375.299 607.643 376.503C603.37 377.707 599.399 379.797 595.988 382.638C592.576 385.478 589.801 389.005 587.843 392.989L551.267 470.926L534.516 433.703Z" fill="#3F3D56"/>
<path d="M213.508 343.487C244.4 343.487 269.443 318.444 269.443 287.552C269.443 256.66 244.4 231.617 213.508 231.617C182.616 231.617 157.573 256.66 157.573 287.552C157.573 318.444 182.616 343.487 213.508 343.487Z" fill="#A0616A"/>
<path d="M158.244 249.006C162.792 242.876 169.329 238.518 174.329 232.751C177.072 229.587 179.35 226.002 182.435 223.169C188.165 217.906 196.179 215.749 203.955 215.481C212.477 215.262 220.931 217.052 228.632 220.707C236.334 224.362 243.067 229.779 248.286 236.519C252.351 234.136 256.415 231.753 260.48 229.37C262.086 233.597 263.691 237.823 265.297 242.05C266.615 240.904 268.296 240.262 270.042 240.238C271.788 240.213 273.486 240.808 274.835 241.916C276.185 243.024 277.099 244.574 277.414 246.291C277.73 248.008 277.428 249.782 276.561 251.298C277.528 248.309 281.96 247.674 284.403 249.649C286.847 251.624 287.501 255.137 287.102 258.253C286.602 261.672 285.091 264.863 282.762 267.416C280.434 269.969 277.396 271.767 274.038 272.579C268.733 273.761 262.56 272.519 258.315 275.912C254.911 278.631 253.884 283.583 250.411 286.213C246.131 289.453 240.081 287.955 234.761 288.671C225.453 289.924 218.083 299.444 219.201 308.769C218.359 305.826 217.474 302.799 215.563 300.409C213.651 298.018 210.432 296.402 207.5 297.281C202.654 298.733 201.862 305.338 203.036 310.259C206.151 323.309 217.955 344.403 217.955 344.403C202.628 350.449 184.367 344.732 172.54 333.259C160.714 321.786 154.555 305.54 151.872 289.283C149.596 275.497 149.919 260.227 158.244 249.006Z" fill="#2F2E41"/>
<path d="M724.662 324.182C735.304 299.784 729.275 277.333 716.302 265.422V265.412C711.202 253.982 704.422 245.162 696.662 243.092C692.912 240.682 689.272 237.852 685.232 236.412C683.35 235.708 681.345 235.392 679.338 235.483C677.33 235.574 675.362 236.07 673.552 236.942L671.492 236.392C669.742 231.922 667.692 231.832 665.412 234.772C656.632 230.682 648.722 228.852 641.682 228.852C618.722 228.852 605.142 248.292 601.542 271.792L620.732 276.902L627.402 266.272L624.322 277.862L634.912 280.672C651.032 301.662 631.742 350.082 607.292 377.022C613.112 375.412 618.909 374.052 624.682 372.942L645.662 342.182L632.662 370.182C639.412 369.192 648.022 370.142 657.432 372.052C660.602 367.912 662.272 362.392 660.632 357.472C663.313 362.661 665.163 368.239 666.112 374.002C685.972 378.852 713.062 381.342 727.662 383.182C739.458 379.332 739.49 335.842 724.662 324.182Z" fill="#2F2E41"/>
<path d="M731.585 241.191C739.38 258.644 723.652 266.151 709.244 265.939C696.225 265.747 685.16 256.601 684.496 243.597C684.176 237.353 686.351 231.238 690.541 226.596C694.731 221.955 700.593 219.168 706.837 218.849C719.84 218.185 726.276 229.302 731.585 241.191Z" fill="#2F2E41"/>
<path d="M369.982 525.309L357.142 503.893L399.834 471.505L417.584 452.764C419.89 450.33 422.794 448.543 426.007 447.582C429.22 446.622 432.629 446.521 435.893 447.291C439.157 448.061 442.162 449.673 444.607 451.968C447.053 454.263 448.853 457.159 449.828 460.368V460.368C451.274 465.123 450.815 470.253 448.55 474.676C446.284 479.099 442.389 482.469 437.686 484.074L410.104 493.491L369.982 525.309Z" fill="#A0616A"/>
<path d="M379.262 524.602L359.272 541.262L353.882 545.752L353.252 546.272C351.862 546.962 350.462 547.642 349.052 548.312C344.832 550.322 340.559 552.232 336.232 554.042C324.848 558.804 313.166 562.822 301.262 566.072C299.002 566.692 296.732 567.282 294.452 567.842C293.062 568.182 291.662 568.522 290.262 568.842C289.382 569.052 288.492 569.252 287.602 569.442C286.522 569.682 285.442 569.922 284.362 570.142C283.232 570.382 282.102 570.612 280.972 570.832C277.931 567.939 275.511 564.458 273.857 560.6C272.203 556.743 271.351 552.589 271.352 548.392C271.352 548.122 271.352 547.842 271.362 547.562L274.572 465.232L275.992 428.742C276.211 420.49 279.648 412.651 285.57 406.9C291.491 401.148 299.427 397.941 307.682 397.962C308.642 397.962 309.592 398.012 310.532 398.102C311.212 398.982 311.842 399.892 312.452 400.812C314.112 403.272 316.352 407.162 318.992 412.042C320.082 414.052 321.232 416.232 322.442 418.542C323.172 419.932 329.472 439.592 335.602 459.672L332.902 480.642L328.022 518.442L348.042 505.302L362.142 496.042L363.812 498.832L368.162 506.092L376.562 520.092L379.262 524.602Z" fill="#3F3D56"/>
<path d="M368.302 501.072C368.292 502.772 368.252 504.442 368.162 506.092C367.954 510.644 367.426 515.175 366.582 519.652C365.202 527.171 362.739 534.45 359.272 541.262C358.812 542.172 358.322 543.072 357.822 543.952C356.532 544.632 355.222 545.292 353.912 545.952C353.692 546.062 353.472 546.172 353.252 546.272C347.682 549.042 342.009 551.632 336.232 554.042C324.848 558.804 313.166 562.822 301.262 566.072C299.002 566.692 296.732 567.282 294.452 567.842C290.002 568.942 285.509 569.939 280.972 570.832C262.506 574.46 243.731 576.282 224.912 576.272C223.662 576.272 222.422 576.262 221.172 576.252C220.792 576.252 220.412 576.242 220.022 576.232C218.922 576.212 217.782 576.192 216.622 576.162C194.383 575.547 172.289 572.363 150.782 566.672C149.072 566.222 147.369 565.756 145.672 565.272C129.322 560.622 113.419 554.525 98.152 547.052C81.372 512.522 84.522 494.082 81.482 452.202C87.722 436.612 193.292 447.622 274.572 465.232C296.632 470.012 316.892 475.282 332.902 480.642C349.442 486.172 361.432 491.792 366.132 497.072C367.23 498.165 367.985 499.556 368.302 501.072V501.072Z" fill="#2F2E41"/>
<path opacity="0.2" d="M81.4879 459.372C81.3326 456.779 81.159 454.101 80.9565 451.312C91.0965 425.992 363.187 470.822 367.777 500.182C367.764 502.874 367.649 505.486 367.455 508.037C356.34 479.059 97.8505 436.451 81.4879 459.372Z" fill="black"/>
</g>
<defs>
<filter id="filter0_d_1_2" x="0" y="0" width="888.16" height="584.272" filterUnits="userSpaceOnUse" color-interpolation-filters="sRGB">
<feFlood flood-opacity="0" result="BackgroundImageFix"/>
<feColorMatrix in="SourceAlpha" type="matrix" values="0 0 0 0 0 0 0 0 0 0 0 0 0 0 0 0 0 0 127 0" result="hardAlpha"/>
<feOffset dy="4"/>
<feGaussianBlur stdDeviation="2"/>
<feComposite in2="hardAlpha" operator="out"/>
<feColorMatrix type="matrix" values="0 0 0 0 0 0 0 0 0 0 0 0 0 0 0 0 0 0 0.25 0"/>
<feBlend mode="normal" in2="BackgroundImageFix" result="effect1_dropShadow_1_2"/>
<feBlend mode="normal" in="SourceGraphic" in2="effect1_dropShadow_1_2" result="shape"/>
</filter>
<clipPath id="clip0_1_2">
<rect width="880.16" height="576.272" fill="white" transform="translate(4)"/>
</clipPath>
</defs>
</svg>
